<svg width="58" height="28" viewBox="0 0 58 28" fill="none" xmlns="http://www.w3.org/2000/svg">
<path d="M17.3333 25.4841L19.6658 25.0232L19.7968 25.6865L19.7302 25.6996L19.7957 26.0313L17.9964 26.3868L18.1274 27.05L19.6602 26.7472L19.693 26.913L18.4268 27.1631C18.4304 27.4151 18.3632 27.6007 18.2252 27.7198C18.105 27.8125 17.9783 27.872 17.845 27.8983C17.8228 27.9027 17.7761 27.9004 17.7051 27.8915C17.6385 27.9047 17.5564 27.8979 17.4588 27.8713L16.6274 27.5187L17.8936 27.2685L17.5943 27.1554L16.0615 27.4582L14.9642 26.9859L16.7635 26.6304L16.1982 26.3975L16.2648 26.3843L15.1342 25.9186L12.8017 26.3795L11.7043 25.9072L12.3374 25.7821L12.0714 25.6624L12.9711 25.4846L12.1398 25.132L11.5733 25.244L10.7086 24.898L10.642 24.9111L10.0767 24.6783L9.94337 24.7046L9.11203 24.352L8.97874 24.3783L8.67941 24.2652L8.27956 24.3442L8.01356 24.2245L8.21348 24.185L7.91415 24.0719L7.9808 24.0587L7.11613 23.7127L6.28479 23.3601L7.11781 23.1955L6.8518 23.0758L5.11911 23.4181L4.55378 23.1853L5.58673 22.9812L5.32072 22.8615L5.52064 22.822L4.98863 22.5825L5.05527 22.5693L4.48993 22.3365L4.7565 22.2838L4.19116 22.051L3.99124 22.0905L3.15989 21.7379L3.09325 21.751L2.52792 21.5182C2.43032 21.4915 2.33055 21.4538 2.22859 21.405C2.14884 21.3519 2.07128 21.3098 1.9959 21.2787L1.96258 21.2853C1.78087 21.1834 1.61483 21.0439 1.46445 20.8669L1.09792 20.9393C1.02728 20.8155 0.983224 20.7093 0.965751 20.6209L0.0327663 20.8052L4.7378e-06 20.6394L0.733064 20.4946L0.700302 20.3288L1.86653 20.0983L1.80101 19.7667L1.00131 19.9247L0.870263 19.2615L1.07019 19.222L1.00466 18.8904L1.40452 18.8114C1.39141 18.745 1.38049 18.6898 1.37175 18.6456C1.38086 18.5748 1.38105 18.5174 1.37231 18.4732L0.705896 18.6048C0.693164 18.4236 0.749258 18.2402 0.874178 18.0547L0.57429 18.114C0.605613 18.0389 0.650228 17.9727 0.708133 17.9153C0.76167 17.8358 0.817391 17.7673 0.875297 17.71L2.57466 17.3742L2.83524 17.116L3.40992 16.52L1.54395 16.8887L1.97824 16.4583L4.24406 16.0106L4.67835 15.5803L4.07858 15.6988L4.91383 14.8446L4.14745 14.996L4.34794 14.7842L4.21466 14.8105L4.44846 14.592L4.88275 14.1616L4.94939 14.1485L5.35036 13.7247L5.38368 13.7181L5.61749 13.4996L5.55085 13.5128L5.75133 13.3009L5.65137 13.3206L5.85185 13.1087L6.01846 13.0758L6.21894 12.8639L6.01902 12.9034L6.2195 12.6915L6.18618 12.6981L6.41999 12.4796L6.32002 12.4994L6.75431 12.069L6.95424 12.0295L7.18804 11.811L7.22136 11.8045L7.45517 11.586L7.52181 11.5728L8.35707 10.7186L8.42371 10.7055L8.65752 10.487L8.7908 10.4607L9.42558 9.8184L9.12569 9.87765L9.79378 9.2288L10.0604 9.17613L10.2942 8.95765L9.96095 9.02349L10.5957 8.38122L10.7956 8.34172L11.4637 7.69287L11.2305 7.73895L11.6648 7.30858L11.998 7.24274L12.2318 7.02426L11.9319 7.08352L12.3662 6.65314L11.8331 6.75848L12.7016 5.89774L12.4351 5.95041L12.4952 5.90408C12.5753 5.8423 12.6487 5.80483 12.7153 5.79167C12.7776 5.75639 12.8198 5.73656 12.842 5.73217C13.0198 5.69706 13.1729 5.71274 13.3014 5.77923L13.5347 5.73314C13.7652 5.84839 13.9023 6.01656 13.9459 6.23764L13.9656 6.33712L14.4654 6.23836L14.5309 6.56998L14.8308 6.51073L14.8636 6.67654L14.4971 6.74896L14.5626 7.08058L14.7958 7.03449L14.8941 7.53191L14.6942 7.57142L14.7925 8.06884L15.0924 8.00959L15.1251 8.1754L14.8586 8.22807L14.9568 8.72549L15.2234 8.67282L15.3217 9.17025L15.1884 9.19658L15.2212 9.36239L15.1545 9.37556L15.2856 10.0388L15.2189 10.052L15.2517 10.2178L15.1851 10.2309L15.2178 10.3967L15.0179 10.4362L15.0834 10.7679L15.1834 10.7481L15.2161 10.9139L15.2495 10.9073L15.2822 11.0731L15.4821 11.0336L15.5149 11.1995L15.3816 11.2258L15.4144 11.3916L15.5143 11.3718L15.5471 11.5377L15.6138 11.5245C15.6181 11.5466 15.6114 11.5709 15.5935 11.5974C15.5979 11.6195 15.6045 11.6527 15.6132 11.6969L15.5788 12.0482L15.5121 12.0614C15.5117 12.1763 15.4669 12.3 15.3777 12.4325C15.3599 12.459 15.342 12.4855 15.3242 12.512C15.3063 12.5385 15.2907 12.5761 15.2772 12.6247L15.4105 12.5983L15.2433 12.8037L16.0097 12.6522C15.9296 12.714 15.8606 12.7736 15.8027 12.831C15.7447 12.8883 15.6868 12.9457 15.6289 13.0031L15.0745 13.5261L15.6742 13.4076L15.2066 13.8446L12.9408 14.2923L12.4732 14.7292L14.3392 14.3606L13.4039 15.2345L11.7046 15.5702L11.237 16.0072L11.5369 15.9479L10.8354 16.6034L11.5352 16.4651L11.0676 16.9021L10.6344 16.9877L10.1668 17.4246L9.96686 17.4641L9.41239 17.9872L9.86466 18.1734L10.6977 18.0088L11.2963 18.2351L10.0968 18.4721L10.3961 18.5853L9.69638 18.7235L9.96239 18.8433L10.8954 18.6589L11.4607 18.8918L11.8606 18.8128L12.7252 19.1588L12.7585 19.1522L13.9559 19.6047L14.0225 19.5916L14.9205 19.931L15.1204 19.8915L15.7191 20.1178L15.4525 20.1704L16.0512 20.3967L15.9845 20.4099L16.0976 20.4564C16.1686 20.4654 16.244 20.4964 16.3237 20.5496C16.3991 20.5806 16.4856 20.6095 16.5832 20.6362L16.3499 20.6822C16.4209 20.6912 16.5096 20.7311 16.6159 20.802L15.5497 21.0126C15.6028 21.0481 15.6582 21.0946 15.7157 21.1521C15.7911 21.1832 15.8464 21.2297 15.8818 21.2916L17.6144 20.9492C17.6763 21.0289 17.7095 21.0798 17.7138 21.1019L16.8808 21.2665C16.9737 21.3859 17.0398 21.5452 17.0791 21.7441L17.1774 22.2416L17.144 22.2481L17.1768 22.414L16.9769 22.4535L17.0096 22.6193L17.4095 22.5403L17.4422 22.7061L17.5755 22.6797L17.6738 23.1772L17.8071 23.1508L17.8726 23.4824L17.9393 23.4693L18.0375 23.9667L18.6373 23.8482L18.7356 24.3456L17.8359 24.5234L17.8687 24.6892L17.2023 24.8209L17.3333 25.4841Z" fill="url(#paint0_linear_2087_3)"/>
<path d="M42.1726 16.786L44.8049 16.2659L44.9032 16.7633L39.8384 17.764L39.9695 18.4273L43.2349 17.7821L43.366 18.4453L40.5004 19.0115L40.6314 19.6747L40.9979 19.6023L41.0962 20.0997L40.863 20.1458L40.9285 20.4774L40.2288 20.6157L40.2943 20.9473L40.261 20.9539L40.3265 21.2855L41.0262 21.1473L41.1573 21.8105L42.1236 21.6196L42.1694 21.8517C42.1782 21.8959 42.1736 21.9313 42.1558 21.9578L36.2247 23.1297C36.2112 23.1783 36.211 23.2357 36.2241 23.3021L38.5232 22.8478C38.5003 23.082 38.4109 23.272 38.255 23.4176L37.6219 23.5427C37.5283 23.6531 37.3815 23.728 37.1816 23.7675L19.8214 27.1977C19.6437 27.2328 19.4684 27.2215 19.2954 27.1638L19.9285 27.0387C19.7512 26.9589 19.5962 26.8172 19.4637 26.6137L17.1312 27.0746C17.1003 27.0347 17.0783 26.9817 17.0652 26.9153L23.0296 25.7368L22.9641 25.4052L21.9978 25.5962L21.8667 24.9329L21.167 25.0712L21.1015 24.7396L21.1348 24.733L21.0693 24.4014L21.769 24.2631L21.7035 23.9315L21.9367 23.8854L21.8384 23.388L21.4719 23.4604L21.3409 22.7972L24.2065 22.231L24.0754 21.5677L20.81 22.2129L20.6789 21.5497L25.7437 20.549L25.6454 20.0515L23.0131 20.5717L22.9475 20.24L23.7139 20.0886L23.6484 19.757L23.9816 19.6912L23.9161 19.3595L20.2175 20.0903L20.1519 19.7587L19.2856 19.9299L19.1873 19.4325L22.2861 18.8202L22.2534 18.6544L19.7876 19.1416L19.7221 18.81L20.4552 18.6651L20.3897 18.3335L20.9228 18.2282L20.8245 17.7307L20.7579 17.7439L20.6268 17.0807L20.2936 17.1465L20.1626 16.4833L19.6627 16.582L19.5972 16.2504L19.9971 16.1714L19.866 15.5082L19.4995 15.5806L19.434 15.249L19.9671 15.1436L19.8688 14.6462L20.0021 14.6199L19.9038 14.1225L20.5036 14.0039L20.4708 13.8381L19.9044 13.9501L19.7733 13.2868L19.2735 13.3856L19.1752 12.8882L19.3085 12.8618L19.2102 12.3644L19.2769 12.3512L19.1458 11.688L19.6456 11.5892L19.5146 10.926L18.7815 11.0709L18.6505 10.4076L18.7505 10.3879L18.6194 9.72464L19.5524 9.54029L19.4541 9.04286L18.9543 9.14162L18.856 8.64419L18.5894 8.69686L18.5567 8.53106L19.9562 8.25454L19.8579 7.75711L22.3236 7.26991L22.2581 6.9383L21.2585 7.13581L21.1929 6.80419L17.9608 7.44282L17.9281 7.27701L18.2946 7.20459L18.1963 6.70716L18.2296 6.70058L18.1313 6.20315L18.2313 6.1834L18.1003 5.52017L18.0669 5.52675L17.9031 4.69771L17.8365 4.71088L17.7775 4.41242C17.76 4.32399 17.758 4.25547 17.7715 4.20687L17.4383 4.27271C17.4354 3.79089 17.6784 3.5017 18.1671 3.40513L35.2607 0.0276607C35.7716 -0.0732904 36.1062 0.101782 36.2646 0.552879L36.5978 0.487041C36.6288 0.526867 36.653 0.590996 36.6705 0.679428L36.7294 0.977883L36.7961 0.964715L36.9599 1.79376L36.9932 1.78717L37.1242 2.45041L37.0243 2.47016L37.1226 2.96758L37.0892 2.97417L37.1875 3.47159L36.821 3.54401L36.8538 3.70982L40.0859 3.0712L40.1514 3.40282L41.151 3.2053L41.2166 3.53692L38.7508 4.02412L38.8491 4.52154L37.4496 4.79806L37.4824 4.96387L37.7489 4.9112L37.8472 5.40862L38.347 5.30987C38.3463 5.53972 38.3013 5.72089 38.2121 5.85338L37.2791 6.03773C37.1629 6.26742 36.9604 6.4108 36.6717 6.46786L26.6754 8.44299L26.7475 8.80776L26.6475 8.82752L26.7785 9.49075L27.5116 9.34591L27.6427 10.0091L27.1428 10.1079L27.2215 10.5058L36.4847 8.67555C36.729 8.62727 36.9575 8.674 37.1702 8.81575L37.1035 8.82892C37.2365 8.91751 37.347 9.06796 37.4351 9.28026L37.3351 9.30001L37.4334 9.79744L37.9332 9.69868L38.0643 10.3619L38.6307 10.25L38.6635 10.4158L38.0637 10.5343L38.162 11.0317L38.0287 11.0581L38.127 11.5555L37.5939 11.6608L37.6594 11.9924L38.0259 11.92L38.1569 12.5833L37.7571 12.6623L37.8226 12.9939L38.3224 12.8951L38.4535 13.5584L38.7867 13.4925L38.8129 13.6252C38.8609 13.8684 38.8404 14.0562 38.7511 14.1887L38.8178 14.1755C38.6881 14.4538 38.4678 14.6237 38.1568 14.6851L28.8936 16.5154L28.9198 16.6481L28.3867 16.7534L28.4522 17.085L27.7191 17.2299L27.7846 17.5615L30.2504 17.0743L30.2832 17.2401L27.1843 17.8524L27.2826 18.3498L28.1489 18.1786L28.2145 18.5102L31.9131 17.7794L31.9721 18.0779L42.2349 16.0501C42.346 16.0282 42.437 16.0217 42.508 16.0306L42.1415 16.103C42.3767 16.1254 42.5652 16.2031 42.7068 16.3359L41.9404 16.4873C42.0555 16.6024 42.1329 16.702 42.1726 16.786Z" fill="url(#paint1_linear_2087_3)"/>
<path d="M57.781 9.22265L57.881 9.2029C57.9203 9.40187 57.9197 9.57426 57.8793 9.72007L57.8127 9.73324C57.817 9.75535 57.8057 9.81501 57.7788 9.91222L57.7454 9.9188C57.6963 10.0204 57.636 10.1242 57.5646 10.2302C57.5111 10.3097 57.4375 10.4046 57.3439 10.515L57.3106 10.5216C57.2928 10.5481 57.2638 10.5768 57.2237 10.6076C57.1837 10.6385 57.1458 10.6805 57.1101 10.7335L57.6099 10.6347C57.5877 10.6391 57.5788 10.6523 57.5832 10.6745C57.5832 10.6745 57.5721 10.6766 57.5498 10.681L57.1756 11.0651L57.5088 10.9992L57.3084 11.2111L56.9085 11.2901L56.2404 11.939L55.8406 12.018L55.4063 12.4484L55.6395 12.4023L54.37 13.6868L53.7036 13.8185L53.0688 14.4608L53.4686 14.3818L53.2681 14.5937L51.5976 16.302L51.4977 16.3217L51.0634 16.7521L51.0967 16.7455L50.2281 17.6063L50.0276 17.8182L49.7944 17.8643L49.5606 18.0827L50.1937 17.9576L49.7594 18.388L50.4258 18.2563L49.5905 19.1105L49.4906 19.1302L48.622 19.991L49.9215 19.7342L49.0529 20.595L47.1536 20.9703L46.3184 21.8244L47.5846 21.5742L47.1503 22.0046L46.3173 22.1692C46.2419 22.1382 46.1754 22.0939 46.1179 22.0363C46.087 21.9965 46.0427 21.9478 45.9852 21.8903L44.7523 22.1339C44.6904 22.0542 44.6529 21.9812 44.6398 21.9149L44.5546 21.4838L46.4539 21.1085L46.3229 20.4453L45.0567 20.6955L44.9256 20.0322L44.9923 20.0191L44.8612 19.3558L44.1948 19.4875L44.1293 19.1559L43.5295 19.2744L43.4967 19.1086L43.73 19.0625L43.5662 18.2335L43.5329 18.24L43.4673 17.9084L43.5673 17.8887L43.4363 17.2254L43.4029 17.232L43.2391 16.403L42.8393 16.482C42.8265 16.3007 42.8493 16.1239 42.9076 15.9516L43.574 15.82C43.668 15.5947 43.8018 15.3959 43.9755 15.2238C44.0334 15.1664 44.0913 15.109 44.1493 15.0516C44.2072 14.9942 44.2561 14.9501 44.2962 14.9192L44.677 14.5683L44.4437 14.6144L44.878 14.1841L45.3112 14.0985L46.0126 13.443L46.4124 13.364L46.6462 13.1456L46.313 13.2114L46.7806 12.7744L46.2808 12.8732L47.216 11.9993L47.2494 11.9927L47.4832 11.7742L47.5498 11.761L48.2512 11.1056L48.1513 11.1254L49.0865 10.2514L49.0532 10.258L49.1734 10.1654L48.9871 10.0988L48.9538 10.1054L48.3551 9.87911L48.2885 9.89228L47.9891 9.77914L48.1224 9.7528L46.9251 9.30025L46.4253 9.39901L45.1947 8.95304L45.5945 8.87403L44.6965 8.53462L44.7965 8.51487L44.1978 8.28859L43.8646 8.35443L43.5653 8.24129L43.7652 8.20179L43.1666 7.97551L42.4947 7.72924C42.3217 7.67153 42.1466 7.60277 41.9693 7.52296L41.5694 7.60196C41.4631 7.53109 41.3456 7.46241 41.2171 7.39592C41.1064 7.30294 41.0024 7.18566 40.9052 7.04407L42.0048 6.8268L41.8393 6.51494L39.7401 6.92972C39.7092 6.88989 39.6871 6.83681 39.674 6.77049L39.6413 6.60468L42.5069 6.03848L42.4413 5.70686L42.6413 5.66736L42.5102 5.00413L41.2773 5.24773L41.1791 4.7503L39.7463 5.0334L39.648 4.53598L38.5151 4.75982L38.384 4.09659L41.6828 3.4448L41.65 3.27899L39.5175 3.70035L39.3864 3.03712L38.8866 3.13587L38.7883 2.63845L41.4873 2.10516L41.3891 1.60774L40.8892 1.70649L40.791 1.20907L40.7576 1.21565L40.6921 0.884035L40.2589 0.969623C40.2247 0.562904 40.4187 0.317848 40.8407 0.234454C40.8852 0.225675 40.9318 0.227951 40.9806 0.241282C41.0472 0.228114 41.1293 0.23486 41.2269 0.261518L42.0583 0.6141L42.4914 0.528511L43.0568 0.761373L43.0901 0.754789L43.9548 1.10079L44.4546 1.00203L45.2859 1.35461L42.5869 1.8879L43.4183 2.24048L43.9181 2.14172L45.0154 2.61403L47.1813 2.18608L47.4473 2.30581L44.1152 2.96418L45.2459 3.4299L46.3788 3.20606L47.2101 3.55864L48.6763 3.26895L49.5076 3.62154L50.7405 3.37794L51.8711 3.84366L51.6379 3.88974L52.2032 4.1226L49.371 4.68222L49.903 4.92167L52.0355 4.50031L52.6008 4.73317L51.5346 4.94385L52.6319 5.41615L53.0651 5.33056L54.1625 5.80287L54.1958 5.79628L54.7611 6.02914L54.5279 6.07523L54.8272 6.18837L55.1271 6.12911L55.6924 6.36197L55.6258 6.37514L56.1911 6.608C56.2399 6.62133 56.2887 6.63466 56.3375 6.64799C56.3863 6.66132 56.4262 6.6879 56.4571 6.72773L56.0573 6.80673C56.208 6.86883 56.3499 6.94417 56.4828 7.03276C56.6157 7.12136 56.7175 7.22759 56.7881 7.35146L57.3212 7.24612C57.4184 7.3877 57.4889 7.56903 57.5326 7.79011L57.5522 7.8896L57.419 7.91593L57.4517 8.08174L57.5184 8.06857L57.5839 8.40019L57.6172 8.39361L57.781 9.22265ZM45.5438 22.4599C45.3661 22.495 45.2129 22.4793 45.0844 22.4128L45.9507 22.2416L45.8907 22.2879C45.8105 22.3497 45.7371 22.3872 45.6705 22.4004C45.6304 22.4312 45.5882 22.4511 45.5438 22.4599Z" fill="url(#paint2_linear_2087_3)"/>
<defs>
<linearGradient id="paint0_linear_2087_3" x1="0.239359" y1="19.2225" x2="58.5509" y2="7.70089" gradientUnits="userSpaceOnUse">
<stop offset="0.259615" stop-color="#12F7D6" stop-opacity="0.09"/>
<stop offset="1" stop-color="#64989D"/>
</linearGradient>
<linearGradient id="paint1_linear_2087_3" x1="0.239359" y1="19.2225" x2="58.5509" y2="7.70089" gradientUnits="userSpaceOnUse">
<stop offset="0.259615" stop-color="#12F7D6" stop-opacity="0.09"/>
<stop offset="1" stop-color="#64989D"/>
</linearGradient>
<linearGradient id="paint2_linear_2087_3" x1="0.239359" y1="19.2225" x2="58.5509" y2="7.70089" gradientUnits="userSpaceOnUse">
<stop offset="0.259615" stop-color="#12F7D6" stop-opacity="0.09"/>
<stop offset="1" stop-color="#64989D"/>
</linearGradient>
</defs>
</svg>
